# xmcd
#
# Track frame offsets:
#       150
#       14801
#       29343
#       41326
#       55860
#       68954
#       80490
#       94301
#       106666
#       118473
#       133222
#       147137
#       162349
#       177083
#       191403
#       205929
#       220285
#       231408
#       246749
#       262182
#       274414
#       288679
#       301418
#       314690
#
# Disc length: 4357 seconds
#
# Revision: 1
# Processed by: cddbd v1.5.1PL0 Copyright (c) Steve Scherf et al.
# Submitted via: WhereIsIt 3.67
#
DISCID=84110318
DTITLE=Ma Rainey - 1924 - 1928
DYEAR=1900
DGENRE=Blues
TTITLE0=Jealous Hearted Blues
TTITLE1=Trust No Man
TTITLE2=Morning Hour Blues
TTITLE3=Ma Rainey's Black Bottom
TTITLE4=New Bo-Weavil Blues
TTITLE5=Black Cat Hoot Owl Blues
TTITLE6=Hear Me Talking To You
TTITLE7=Prove It On Me
TTITLE8=Victim Of The Blues
TTITLE9=Sleep Talking Blues
TTITLE10=Blame It On The Blues
TTITLE11=See See Rider Blues
TTITLE12=Daddy Goodbye Blues
TTITLE13=Sweet Rough Man
TTITLE14=Black Eye Blues
TTITLE15=Leavin' This Morning
TTITLE16=Runaway Blues
TTITLE17=Jelly Bean Blues
TTITLE18=Countin' The Blues
TTITLE19=Slave To The Blues
TTITLE20=Chain Gang Blues
TTITLE21=Bessemer Bound Blues
TTITLE22=Wringin' And Twistin' Blues
TTITLE23=Mountain Jack Blues
EXTD=
EXTT0=
EXTT1=
EXTT2=
EXTT3=
EXTT4=
EXTT5=
EXTT6=
EXTT7=
EXTT8=
EXTT9=
EXTT10=
EXTT11=
EXTT12=
EXTT13=
EXTT14=
EXTT15=
EXTT16=
EXTT17=
EXTT18=
EXTT19=
EXTT20=
EXTT21=
EXTT22=
EXTT23=
PLAYORDER=
